Coordinates
version=1
nRows=16
nColumns=63
inDegrees=yes

Units are S.I. units (second, meters, Newtons, ...)
If the header above contains a line with 'inDegrees', this indicates whether rotational values are in degrees (yes) or radians (no).

endheader
time	pelvis_tilt	pelvis_list	pelvis_rotation	pelvis_tx	pelvis_ty	pelvis_tz	hip_flexion_r	hip_adduction_r	hip_rotation_r	knee_angle_r	knee_angle_r_beta	ankle_angle_r	subtalar_angle_r	mtp_angle_r	hip_flexion_l	hip_adduction_l	hip_rotation_l	knee_angle_l	knee_angle_l_beta	ankle_angle_l	subtalar_angle_l	mtp_angle_l	L5_S1_Flex_Ext	L5_S1_Lat_Bending	L5_S1_axial_rotation	L4_L5_Flex_Ext	L4_L5_Lat_Bending	L4_L5_axial_rotation	L3_L4_Flex_Ext	L3_L4_Lat_Bending	L3_L4_axial_rotation	L2_L3_Flex_Ext	L2_L3_Lat_Bending	L2_L3_axial_rotation	L1_L2_Flex_Ext	L1_L2_Lat_Bending	L1_L2_axial_rotation	L1_T12_Flex_Ext	L1_T12_Lat_Bending	L1_T12_axial_rotation	Abs_r3	Abs_r2	Abs_r1	Abs_t1	Abs_t2	neck_flexion	neck_bending	neck_rotation	arm_flex_r	arm_add_r	arm_rot_r	elbow_flex_r	pro_sup_r	wrist_flex_r	wrist_dev_r	arm_flex_l	arm_add_l	arm_rot_l	elbow_flex_l	pro_sup_l	wrist_flex_l	wrist_dev_l
0.000000	2.855029	-5.664064	94.350416	0.271287	0.857235	0.827702	-3.698048	2.500597	14.688468	2.502831	0.043683	18.177393	-8.430987	0.000000	-4.342426	-3.343639	3.164209	0.560036	0.009774	24.897181	-9.260081	0.000000	-0.054067	0.526849	2.162065	-0.100409	0.700710	2.297194	-0.088827	1.280982	2.297194	-0.061794	1.280982	1.891807	-0.050207	1.074351	1.756678	-0.030894	0.816090	1.621549	-0.386199	5.959826	12.024756	0.000000	0.000000	21.347858	-6.594543	-5.312586	11.554872	-7.646378	48.344299	33.558817	81.314165	10.056417	16.622362	14.813575	-3.566719	61.913934	39.646095	16.514974	-18.026019	8.749185
0.016949	3.042557	-5.615037	94.976770	0.270513	0.856869	0.827896	-3.783603	2.778131	13.300323	2.508869	0.043788	18.535903	-7.502260	0.000000	-4.309536	-3.518937	2.100453	0.573709	0.010013	25.488771	-7.366182	0.000000	-0.071978	0.550999	2.075472	-0.133670	0.732829	2.205189	-0.118252	1.339700	2.205189	-0.082263	1.339700	1.816038	-0.066839	1.123598	1.686321	-0.041128	0.853498	1.556604	-0.514130	6.233015	11.543154	0.000000	0.000000	21.633678	-6.808032	-5.505033	11.304521	-7.676063	46.206187	34.248240	83.642144	11.245914	17.062723	15.705426	-3.337788	62.870962	39.502323	15.480933	-19.136570	9.032205
0.033898	3.178529	-5.618330	95.557016	0.269761	0.856500	0.828270	-3.794997	2.981700	12.079701	2.524166	0.044055	18.861137	-6.706347	0.000000	-4.217885	-3.637068	1.366910	0.600207	0.010476	25.946882	-5.866643	0.000000	-0.084667	0.567678	1.989240	-0.157235	0.755012	2.113567	-0.139099	1.380253	2.113567	-0.096766	1.380253	1.740585	-0.078622	1.157609	1.616257	-0.048379	0.879333	1.491930	-0.604767	6.421689	11.063554	0.000000	0.000000	21.925009	-7.038782	-5.784621	11.106435	-7.694173	44.539108	34.797421	84.967536	12.063379	17.530225	16.418446	-3.155482	63.487147	39.402838	14.709559	-20.041054	9.359590
0.050847	3.267179	-5.668005	96.089591	0.269035	0.856132	0.828799	-3.740678	3.117462	11.016965	2.547752	0.044467	19.155033	-6.031716	0.000000	-4.075336	-3.702990	0.925423	0.637506	0.011127	26.284272	-4.723970	0.000000	-0.092657	0.577531	1.904901	-0.172072	0.768116	2.023958	-0.152225	1.404208	2.023958	-0.105897	1.404208	1.666789	-0.086041	1.177700	1.547732	-0.052944	0.894595	1.428676	-0.661837	6.533142	10.594489	0.000000	0.000000	22.220080	-7.280135	-6.136043	10.954285	-7.702462	43.294801	35.220032	85.411971	12.548338	18.014288	16.970642	-3.014743	63.806703	39.342159	14.171489	-20.759454	9.721333
0.067797	3.312738	-5.758125	96.572930	0.268341	0.855768	0.829457	-3.629091	3.191577	10.102479	2.578662	0.045006	19.419528	-5.466840	0.000000	-3.889753	-3.721665	0.737837	0.683585	0.011931	26.513702	-3.900666	0.000000	-0.096469	0.581202	1.823992	-0.179152	0.772998	1.937991	-0.158488	1.413134	1.937991	-0.110254	1.413134	1.595993	-0.089581	1.185186	1.481993	-0.055122	0.900281	1.367994	-0.689066	6.574669	10.144494	0.000000	0.000000	22.517124	-7.525436	-6.543991	10.841745	-7.702687	42.425000	35.529745	85.097082	12.740315	18.504333	17.380024	-2.910512	63.873844	39.314804	13.837357	-21.311753	10.107422
0.084746	3.319439	-5.882751	97.005471	0.267684	0.855412	0.830218	-3.468684	3.210203	9.326605	2.615929	0.045657	19.656563	-5.000189	0.000000	-3.668998	-3.698055	0.765996	0.736421	0.012853	26.647928	-3.359234	0.000000	-0.096625	0.579336	1.748045	-0.179443	0.770517	1.857298	-0.158745	1.408597	1.857298	-0.110433	1.408597	1.529539	-0.089726	1.181382	1.420286	-0.055212	0.897391	1.311034	-0.690184	6.553564	9.722101	0.000000	0.000000	22.814371	-7.768030	-6.993158	10.762486	-7.696604	41.881445	35.740233	84.144501	12.678835	18.989784	17.664597	-2.837732	63.732784	39.315294	13.677802	-21.717934	10.507848
0.101695	3.291514	-6.035947	97.385649	0.267070	0.855066	0.831055	-3.267905	3.179499	8.679708	2.658585	0.046401	19.868075	-4.620233	0.000000	-3.420937	-3.637118	0.971745	0.793991	0.013858	26.699710	-3.062179	0.000000	-0.093648	0.572578	1.678595	-0.173913	0.761529	1.783508	-0.153854	1.392167	1.783508	-0.107030	1.392167	1.468771	-0.086961	1.167602	1.363859	-0.053510	0.886924	1.258947	-0.668916	6.477122	9.335844	0.000000	0.000000	23.110052	-8.001261	-7.468236	10.710180	-7.685968	41.615871	35.865171	82.675858	12.403424	19.460061	17.842370	-2.791346	63.427736	39.338146	13.663457	-21.997979	10.912601
0.118644	3.233197	-6.211775	97.711901	0.266505	0.854735	0.831943	-3.035199	3.105625	8.152150	2.705663	0.047223	20.056004	-4.315443	0.000000	-3.153431	-3.543817	1.316927	0.854273	0.014910	26.681806	-2.972003	0.000000	-0.088058	0.561574	1.617178	-0.163533	0.746893	1.718251	-0.144671	1.365411	1.718251	-0.100642	1.365411	1.415031	-0.081771	1.145162	1.313957	-0.050317	0.869878	1.212883	-0.628992	6.352637	8.994257	0.000000	0.000000	23.402398	-8.218474	-7.953918	10.678501	-7.672536	41.580016	35.918229	80.812787	11.953606	19.904587	17.931350	-2.766294	63.002914	39.377881	13.764960	-22.171873	11.311671
0.135593	3.148719	-6.404298	97.982662	0.265995	0.854422	0.832855	-2.779013	2.994739	7.734294	2.756196	0.048105	20.222286	-4.074290	0.000000	-2.874344	-3.423111	1.763388	0.915243	0.015974	26.606974	-3.051211	0.000000	-0.080379	0.546967	1.565326	-0.149272	0.727466	1.663159	-0.132055	1.329896	1.663159	-0.091865	1.329896	1.369660	-0.074640	1.115376	1.271827	-0.045929	0.847252	1.173995	-0.574139	6.187403	8.705874	0.000000	0.000000	23.689640	-8.413013	-8.434895	10.661121	-7.658063	41.725617	35.913081	78.676919	11.368907	20.312783	17.949544	-2.757519	62.502533	39.429016	13.952946	-22.259596	11.695050
0.152542	3.042313	-6.607577	98.196369	0.265544	0.854130	0.833765	-2.507796	2.853001	7.416504	2.809217	0.049030	20.368862	-3.885244	0.000000	-2.591539	-3.279962	2.272972	0.974880	0.017015	26.487974	-3.262306	0.000000	-0.071131	0.529403	1.524575	-0.132098	0.704106	1.619861	-0.116861	1.287191	1.619861	-0.081296	1.287191	1.334003	-0.066052	1.079559	1.238717	-0.040644	0.820046	1.143431	-0.508083	5.988715	8.479228	0.000000	0.000000	23.970010	-8.578222	-8.895861	10.651710	-7.644305	42.004410	35.863399	76.389885	10.688851	20.674070	17.914961	-2.759963	61.970805	39.486072	14.198052	-22.281134	12.052726
0.169492	2.918212	-6.815675	98.351459	0.265158	0.853863	0.834647	-2.229993	2.686570	7.189143	2.863759	0.049982	20.497669	-3.736776	0.000000	-2.312880	-3.119330	2.807522	1.031160	0.017997	26.337563	-3.567792	0.000000	-0.060837	0.509527	1.496458	-0.112981	0.677670	1.589987	-0.099949	1.238863	1.589987	-0.069531	1.238863	1.309401	-0.056493	1.039027	1.215872	-0.034762	0.789257	1.122344	-0.434553	5.763868	8.322853	0.000000	0.000000	24.241738	-8.707447	-9.321507	10.643943	-7.633018	42.368133	35.782858	74.073317	9.952964	20.977872	17.845607	-2.768568	61.451946	39.543567	14.470913	-22.256467	12.374690
0.186441	2.773933	-7.039347	98.438298	0.264859	0.853620	0.835419	-1.936306	2.493527	6.970209	2.915020	0.050877	20.641925	-3.499357	0.000000	-2.032677	-2.941569	3.109789	1.078937	0.018831	26.195526	-3.718761	0.000000	-0.047697	0.486961	1.490827	-0.088577	0.647658	1.584004	-0.078361	1.183996	1.584004	-0.054512	1.183996	1.304474	-0.044291	0.993010	1.211297	-0.027254	0.754302	1.118121	-0.340692	5.508595	8.291535	0.000000	0.000000	24.507885	-8.752094	-9.632747	10.590715	-7.633743	42.559311	35.742697	72.260825	9.285020	21.158508	17.809641	-2.774680	61.115673	39.606466	14.737882	-22.275871	12.676639
0.203390	2.625090	-7.222085	98.444603	0.264655	0.853439	0.836089	-1.702940	2.294751	6.918703	2.948823	0.051467	20.728022	-3.398730	0.000000	-1.815933	-2.760628	3.468986	1.104052	0.019269	26.022685	-4.067732	0.000000	-0.039974	0.464505	1.509219	-0.074235	0.617792	1.603545	-0.065673	1.129398	1.603545	-0.045686	1.129398	1.320567	-0.037120	0.947219	1.226240	-0.022841	0.719518	1.131914	-0.285528	5.254575	8.393823	0.000000	0.000000	24.788829	-8.740922	-9.874702	10.530377	-7.649981	42.715901	35.710743	70.911440	8.694615	21.239059	17.812255	-2.756698	60.963731	39.638114	14.868697	-22.309981	12.887958
0.220339	2.474044	-7.391626	98.366572	0.264552	0.853290	0.836636	-1.474057	2.094081	6.894636	3.023822	0.052776	20.834067	-3.245469	0.000000	-1.619197	-2.579083	3.709860	1.141815	0.019928	25.899109	-4.364325	0.000000	-0.032132	0.442279	1.548750	-0.059672	0.588232	1.645547	-0.052789	1.075358	1.645547	-0.036724	1.075358	1.355156	-0.029838	0.901896	1.258359	-0.018360	0.685091	1.161562	-0.229515	5.003153	8.613681	0.000000	0.000000	25.028774	-8.684922	-10.023678	10.463564	-7.686095	42.902374	35.678841	69.839052	8.175506	21.178071	17.830164	-2.725386	60.950107	39.648943	14.988818	-22.356660	13.033745
0.237288	2.320828	-7.546205	98.240256	0.264524	0.853170	0.837025	-1.279289	1.890430	6.858833	3.081504	0.053782	20.928922	-3.024164	0.000000	-1.460332	-2.399465	3.796497	1.151201	0.020092	25.808044	-4.515918	0.000000	-0.024374	0.420018	1.599534	-0.045266	0.558624	1.699505	-0.040045	1.021232	1.699505	-0.027857	1.021232	1.399592	-0.022634	0.856501	1.299621	-0.013927	0.650608	1.199650	-0.174103	4.751330	8.896126	0.000000	0.000000	25.262413	-8.563585	-10.075169	10.370046	-7.710643	42.990482	35.645021	69.157564	7.732364	21.004713	17.863556	-2.690087	61.089048	39.667917	14.863297	-22.578839	13.035328
0.254237	2.176196	-7.674383	98.056656	0.264584	0.853091	0.837264	-1.121265	1.700426	6.896192	3.133779	0.054695	21.007042	-2.838762	0.000000	-1.344725	-2.233163	3.753570	1.148902	0.020052	25.754208	-4.569451	0.000000	-0.018127	0.399318	1.664148	-0.033663	0.531093	1.768157	-0.029780	0.970902	1.768157	-0.020717	0.970902	1.456129	-0.016832	0.814290	1.352120	-0.010358	0.618544	1.248111	-0.129476	4.517167	9.255492	0.000000	0.000000	25.467369	-8.409655	-10.061731	10.248174	-7.731236	42.939258	35.633222	68.881517	7.415082	20.783124	17.934154	-2.642359	61.426480	39.648763	14.643068	-22.801079	12.943019
